<svg width="512" height="512" viewBox="0 0 512 512" fill="none" xmlns="http://www.w3.org/2000/svg">
<g clip-path="url(#clip0_3515_1464)">
<path d="M397.994 19.8398L137.898 279.936C127.964 289.816 120.089 301.569 114.728 314.514C109.367 327.459 106.627 341.338 106.666 355.349V384C106.666 389.658 108.914 395.084 112.915 399.085C116.916 403.086 122.342 405.333 128 405.333H156.65C170.661 405.373 184.541 402.633 197.486 397.272C210.431 391.911 222.183 384.035 232.064 374.101L492.16 114.005C504.627 101.507 511.628 84.5752 511.628 66.9224C511.628 49.2696 504.627 32.3374 492.16 19.8398C479.481 7.72015 462.617 0.956543 445.077 0.956543C427.537 0.956543 410.673 7.72015 397.994 19.8398ZM461.994 83.8398L201.898 343.936C189.869 355.892 173.611 362.622 156.65 362.666H149.333V355.349C149.378 338.389 156.108 322.13 168.064 310.101L428.16 50.0051C432.716 45.6521 438.776 43.2231 445.077 43.2231C451.379 43.2231 457.438 45.6521 461.994 50.0051C466.473 54.4961 468.988 60.5798 468.988 66.9224C468.988 73.265 466.473 79.3488 461.994 83.8398Z" fill="#262626"/>
<path d="M490.667 191.552C485.009 191.552 479.583 193.8 475.582 197.8C471.581 201.801 469.333 207.227 469.333 212.885V320H384C367.026 320 350.748 326.743 338.745 338.745C326.743 350.748 320 367.026 320 384V469.333H106.667C89.6928 469.333 73.4142 462.591 61.4118 450.588C49.4095 438.586 42.6667 422.307 42.6667 405.333V106.667C42.6667 89.6928 49.4095 73.4142 61.4118 61.4118C73.4142 49.4095 89.6928 42.6667 106.667 42.6667H299.563C305.221 42.6667 310.647 40.4191 314.648 36.4183C318.648 32.4175 320.896 26.9913 320.896 21.3333C320.896 15.6754 318.648 10.2492 314.648 6.24839C310.647 2.24761 305.221 0 299.563 0L106.667 0C78.3873 0.0338743 51.2759 11.2828 31.2794 31.2794C11.2828 51.2759 0.0338743 78.3873 0 106.667L0 405.333C0.0338743 433.613 11.2828 460.724 31.2794 480.721C51.2759 500.717 78.3873 511.966 106.667 512H348.651C362.665 512.04 376.548 509.3 389.496 503.939C402.444 498.578 414.201 490.703 424.085 480.768L480.747 424.064C490.683 414.184 498.561 402.432 503.925 389.487C509.29 376.543 512.034 362.663 512 348.651V212.885C512 207.227 509.752 201.801 505.752 197.8C501.751 193.8 496.325 191.552 490.667 191.552ZM393.92 450.603C385.344 459.158 374.5 465.08 362.667 467.669V384C362.667 378.342 364.914 372.916 368.915 368.915C372.916 364.914 378.342 362.667 384 362.667H467.733C465.094 374.475 459.179 385.3 450.667 393.899L393.92 450.603Z" fill="#262626"/>
</g>
<defs>
<clipPath id="clip0_3515_1464">
<rect width="512" height="512" fill="white"/>
</clipPath>
</defs>
</svg>
