<svg width="24" height="24" viewBox="0 0 24 24" fill="none" xmlns="http://www.w3.org/2000/svg">
<path d="M3.68824 23.9999C3.65624 23.9999 3.62524 23.9999 3.59324 23.9999C2.57124 23.9729 1.63024 23.5379 0.944244 22.7759C-0.324757 21.3669 -0.212757 18.9919 1.18824 17.5909L7.05624 11.7239C7.30924 11.4699 7.40024 11.0929 7.29724 10.7149C6.93924 9.39692 6.90424 8.03892 7.19524 6.67892C7.90324 3.36392 10.6262 0.734918 13.9722 0.136919C14.9782 -0.0430815 15.9872 -0.0470815 16.9742 0.129919C17.7052 0.258918 18.2732 0.754919 18.4942 1.45492C18.7452 2.25392 18.4912 3.13592 17.8122 3.81392L15.5652 6.03092C14.9072 6.68892 14.8072 7.72092 15.3432 8.37592C15.6512 8.75392 16.0852 8.97392 16.5652 8.99792C17.0372 9.01792 17.5012 8.84292 17.8362 8.50892L20.4162 5.95892C20.9552 5.41992 21.7482 5.22392 22.4862 5.45792C23.2092 5.68492 23.7402 6.28592 23.8712 7.02492C24.0462 8.01192 24.0432 9.02292 23.8642 10.0279C23.2642 13.3749 20.6352 16.0979 17.3202 16.8049C15.9572 17.0959 14.5992 17.0609 13.2842 16.7019C12.9072 16.5979 12.5302 16.6899 12.2762 16.9429L6.30024 22.9179C5.61024 23.6079 4.66324 23.9999 3.68824 23.9999ZM15.6102 1.99292C15.1882 1.99292 14.7562 2.02792 14.3242 2.10492C11.7702 2.56192 9.69024 4.56792 9.15024 7.09592C8.92624 8.14092 8.95224 9.18192 9.22624 10.1889C9.51624 11.2509 9.22624 12.3799 8.47024 13.1369L2.60224 19.0039C1.95224 19.6539 1.87024 20.8139 2.43124 21.4369C2.74624 21.7869 3.17824 21.9869 3.64624 21.9989C4.10724 22.0179 4.55524 21.8359 4.88724 21.5049L10.8622 15.5299C11.6172 14.7749 12.7472 14.4829 13.8102 14.7729C14.8142 15.0469 15.8552 15.0729 16.9032 14.8489C19.4312 14.3099 21.4372 12.2309 21.8952 9.67492C22.0332 8.90292 22.0352 8.12792 21.9012 7.37392V7.36692L19.2462 9.92592C18.5172 10.6549 17.5022 11.0619 16.4652 10.9939C15.4292 10.9419 14.4562 10.4489 13.7962 9.64092C12.6172 8.20192 12.7752 5.99192 14.1572 4.61092L16.4042 2.39392C16.5832 2.21392 16.5952 2.07992 16.5882 2.05292C16.2732 2.01392 15.9452 1.99092 15.6122 1.99092L15.6102 1.99292Z" fill="#262626"/>
</svg>
