<svg width="512" height="512" viewBox="0 0 512 512" fill="none" xmlns="http://www.w3.org/2000/svg">
<g clip-path="url(#clip0_3515_1491)">
<path d="M485.824 164.715C475.821 153.186 463.457 143.942 449.57 137.608C435.683 131.273 420.597 127.997 405.333 128H320.235L327.403 84.4587C329.939 69.1257 326.879 53.3918 318.781 40.1268C310.683 26.8618 298.087 16.9497 283.29 12.1983C268.492 7.44692 252.48 8.1729 238.173 14.2438C223.867 20.3147 212.219 31.3261 205.355 45.2694L164.523 128H106.667C78.3873 128.034 51.2759 139.283 31.2794 159.279C11.2828 179.276 0.0338743 206.387 0 234.667L0 341.333C0.0338743 369.613 11.2828 396.724 31.2794 416.721C51.2759 436.717 78.3873 447.966 106.667 448H390.4C416.074 447.895 440.857 438.577 460.241 421.742C479.625 404.907 492.322 381.673 496.021 356.267L511.061 249.6C513.179 234.469 512.022 219.06 507.668 204.415C503.314 189.77 495.865 176.231 485.824 164.715ZM42.6667 341.333V234.667C42.6667 217.693 49.4095 201.414 61.4118 189.412C73.4142 177.41 89.6928 170.667 106.667 170.667H149.333V405.333H106.667C89.6928 405.333 73.4142 398.591 61.4118 386.588C49.4095 374.586 42.6667 358.307 42.6667 341.333ZM468.715 243.605L453.653 350.272C451.451 365.504 443.855 379.439 432.247 389.544C420.639 399.649 405.79 405.252 390.4 405.333H192V164.992C194.01 163.241 195.675 161.128 196.907 158.763L243.605 64.1494C245.357 60.9906 247.832 58.2924 250.829 56.2766C253.826 54.2608 257.259 52.9849 260.845 52.5539C264.431 52.1228 268.068 52.5488 271.457 53.7969C274.847 55.045 277.891 57.0796 280.341 59.7334C282.437 62.1707 283.97 65.0405 284.829 68.1381C285.688 71.2357 285.853 74.4847 285.312 77.6534L274.048 145.92C273.554 148.97 273.728 152.092 274.558 155.068C275.389 158.044 276.856 160.805 278.859 163.158C280.861 165.511 283.351 167.402 286.156 168.698C288.961 169.995 292.014 170.666 295.104 170.667H405.333C414.494 170.666 423.548 172.631 431.884 176.43C440.219 180.229 447.642 185.773 453.651 192.688C459.66 199.602 464.114 207.726 466.713 216.511C469.311 225.295 469.994 234.535 468.715 243.605Z" fill="#262626"/>
</g>
<defs>
<clipPath id="clip0_3515_1491">
<rect width="512" height="512" fill="white"/>
</clipPath>
</defs>
</svg>
