<svg width="512" height="512" viewBox="0 0 512 512" fill="none" xmlns="http://www.w3.org/2000/svg">
<g clip-path="url(#clip0_3515_1521)">
<path d="M21.3333 101.333H79.7013C84.2802 118.181 94.2757 133.054 108.146 143.657C122.016 154.261 138.989 160.006 156.448 160.006C173.907 160.006 190.88 154.261 204.75 143.657C218.62 133.054 228.616 118.181 233.195 101.333H490.667C496.325 101.333 501.751 99.0859 505.752 95.0851C509.752 91.0843 512 85.6581 512 80.0002C512 74.3422 509.752 68.916 505.752 64.9152C501.751 60.9144 496.325 58.6668 490.667 58.6668H233.195C228.616 41.8192 218.62 26.9464 204.75 16.343C190.88 5.73951 173.907 -0.00537109 156.448 -0.00537109C138.989 -0.00537109 122.016 5.73951 108.146 16.343C94.2757 26.9464 84.2802 41.8192 79.7013 58.6668H21.3333C15.6754 58.6668 10.2492 60.9144 6.24839 64.9152C2.24761 68.916 0 74.3422 0 80.0002C0 85.6581 2.24761 91.0843 6.24839 95.0851C10.2492 99.0859 15.6754 101.333 21.3333 101.333ZM156.437 42.6668C163.821 42.6668 171.039 44.8564 177.179 48.9586C183.318 53.0609 188.103 58.8915 190.929 65.7133C193.755 72.5351 194.494 80.0416 193.053 87.2835C191.613 94.5255 188.057 101.178 182.836 106.399C177.615 111.62 170.963 115.176 163.721 116.616C156.479 118.057 148.972 117.317 142.15 114.492C135.329 111.666 129.498 106.881 125.396 100.741C121.294 94.602 119.104 87.384 119.104 80.0002C119.115 70.1022 123.052 60.6129 130.051 53.614C137.05 46.6151 146.539 42.6781 156.437 42.6668Z" fill="#262626"/>
<path d="M490.667 234.667H432.299C427.727 217.815 417.736 202.937 403.867 192.329C389.998 181.721 373.023 175.974 355.563 175.974C338.102 175.974 321.127 181.721 307.258 192.329C293.389 202.937 283.398 217.815 278.827 234.667H21.3333C15.6754 234.667 10.2492 236.914 6.24839 240.915C2.24761 244.916 0 250.342 0 256C0 261.658 2.24761 267.084 6.24839 271.085C10.2492 275.086 15.6754 277.333 21.3333 277.333H278.827C283.398 294.185 293.389 309.063 307.258 319.671C321.127 330.279 338.102 336.026 355.563 336.026C373.023 336.026 389.998 330.279 403.867 319.671C417.736 309.063 427.727 294.185 432.299 277.333H490.667C496.325 277.333 501.751 275.086 505.752 271.085C509.752 267.084 512 261.658 512 256C512 250.342 509.752 244.916 505.752 240.915C501.751 236.914 496.325 234.667 490.667 234.667ZM355.563 293.333C348.179 293.333 340.961 291.144 334.821 287.041C328.682 282.939 323.897 277.109 321.071 270.287C318.246 263.465 317.506 255.959 318.947 248.717C320.387 241.475 323.943 234.822 329.164 229.601C334.385 224.38 341.037 220.824 348.279 219.384C355.521 217.943 363.028 218.683 369.85 221.508C376.671 224.334 382.502 229.119 386.604 235.259C390.706 241.398 392.896 248.616 392.896 256C392.885 265.898 388.948 275.387 381.949 282.386C374.95 289.385 365.461 293.322 355.563 293.333Z" fill="#262626"/>
<path d="M490.667 410.667H233.195C228.616 393.819 218.62 378.946 204.75 368.343C190.88 357.74 173.907 351.995 156.448 351.995C138.989 351.995 122.016 357.74 108.146 368.343C94.2757 378.946 84.2802 393.819 79.7013 410.667H21.3333C15.6754 410.667 10.2492 412.914 6.24839 416.915C2.24761 420.916 0 426.342 0 432C0 437.658 2.24761 443.084 6.24839 447.085C10.2492 451.086 15.6754 453.333 21.3333 453.333H79.7013C84.2802 470.181 94.2757 485.054 108.146 495.657C122.016 506.261 138.989 512.006 156.448 512.006C173.907 512.006 190.88 506.261 204.75 495.657C218.62 485.054 228.616 470.181 233.195 453.333H490.667C496.325 453.333 501.751 451.086 505.752 447.085C509.752 443.084 512 437.658 512 432C512 426.342 509.752 420.916 505.752 416.915C501.751 412.914 496.325 410.667 490.667 410.667ZM156.437 469.333C149.054 469.333 141.835 467.144 135.696 463.042C129.557 458.939 124.772 453.109 121.946 446.287C119.12 439.465 118.381 431.959 119.821 424.717C121.262 417.475 124.818 410.823 130.039 405.602C135.26 400.38 141.912 396.825 149.154 395.384C156.396 393.944 163.902 394.683 170.724 397.509C177.546 400.334 183.377 405.119 187.479 411.259C191.581 417.398 193.771 424.616 193.771 432C193.754 441.896 189.815 451.382 182.817 458.38C175.82 465.378 166.334 469.317 156.437 469.333Z" fill="#262626"/>
</g>
<defs>
<clipPath id="clip0_3515_1521">
<rect width="512" height="512" fill="white"/>
</clipPath>
</defs>
</svg>
