<svg width="512" height="512" viewBox="0 0 512 512" fill="none" xmlns="http://www.w3.org/2000/svg">
<g clip-path="url(#clip0_3515_1525)">
<path d="M396.395 45.6531L262.741 1.08777C258.365 -0.36975 253.635 -0.36975 249.259 1.08777L115.605 45.6531C94.3552 52.7119 75.8701 66.2879 62.7763 84.4523C49.6825 102.617 42.646 124.445 42.6665 146.837V256C42.6665 417.344 238.933 506.453 247.339 510.165C250.065 511.377 253.016 512.003 256 512.003C258.984 512.003 261.934 511.377 264.661 510.165C273.067 506.453 469.333 417.344 469.333 256V146.837C469.354 124.445 462.317 102.617 449.223 84.4523C436.13 66.2879 417.645 52.7119 396.395 45.6531ZM426.667 256C426.667 372.373 291.861 448.704 256 466.965C220.096 448.768 85.3332 372.672 85.3332 256V146.837C85.3345 133.403 89.5631 120.31 97.4199 109.413C105.277 98.5159 116.363 90.3676 129.109 86.1224L256 43.8184L382.891 86.1224C395.636 90.3676 406.723 98.5159 414.58 109.413C422.437 120.31 426.665 133.403 426.667 146.837V256Z" fill="#262626"/>
<path d="M326.4 177.067L237.056 266.667L189.184 216.747C187.263 214.646 184.94 212.951 182.354 211.762C179.768 210.573 176.97 209.913 174.125 209.822C171.279 209.731 168.445 210.21 165.788 211.232C163.131 212.253 160.705 213.796 158.653 215.769C156.601 217.742 154.965 220.106 153.842 222.722C152.718 225.337 152.129 228.151 152.109 230.998C152.089 233.844 152.64 236.666 153.727 239.296C154.815 241.927 156.418 244.313 158.442 246.315L207.637 297.515C211.306 301.478 215.74 304.655 220.672 306.855C225.604 309.055 230.931 310.232 236.33 310.315H237.034C242.326 310.332 247.569 309.298 252.458 307.273C257.347 305.248 261.785 302.272 265.514 298.517L356.65 207.381C358.641 205.395 360.221 203.036 361.3 200.439C362.378 197.843 362.935 195.059 362.938 192.247C362.941 189.435 362.39 186.65 361.317 184.051C360.244 181.452 358.669 179.089 356.682 177.099C354.696 175.108 352.337 173.529 349.741 172.45C347.144 171.371 344.36 170.814 341.548 170.811C338.736 170.808 335.951 171.359 333.352 172.432C330.753 173.506 328.39 175.081 326.4 177.067Z" fill="#262626"/>
</g>
<defs>
<clipPath id="clip0_3515_1525">
<rect width="512" height="512" fill="white"/>
</clipPath>
</defs>
</svg>
