<svg width="512" height="512" viewBox="0 0 512 512" fill="none" xmlns="http://www.w3.org/2000/svg">
<g clip-path="url(#clip0_3515_1533)">
<path d="M508.502 187.605C504.138 173.715 495.42 161.598 483.637 153.046C471.853 144.494 457.631 139.961 443.072 140.117H349.867L321.558 51.8828C317.106 37.9939 308.358 25.8778 296.576 17.2816C284.793 8.68532 270.585 4.05322 256 4.05322C241.415 4.05322 227.207 8.68532 215.425 17.2816C203.643 25.8778 194.895 37.9939 190.443 51.8828L162.134 140.117H68.9282C54.4161 140.138 40.2816 144.744 28.5438 153.278C16.8059 161.812 8.06508 173.837 3.56973 187.635C-0.925614 201.433 -0.945511 216.299 3.51288 230.11C7.97128 243.92 16.6799 255.968 28.3949 264.534L104.256 320L75.4135 409.323C70.7525 423.176 70.6934 438.165 75.2452 452.055C79.797 465.945 88.7159 477.992 100.672 486.4C112.424 495.078 126.665 499.727 141.273 499.654C155.881 499.581 170.075 494.79 181.739 485.995L256 431.339L330.283 485.931C342.013 494.559 356.177 499.246 370.739 499.317C385.3 499.388 399.509 494.839 411.323 486.326C423.137 477.812 431.947 465.772 436.486 451.936C441.026 438.099 441.061 423.18 436.587 409.323L407.744 320L483.691 264.534C495.54 256.076 504.351 244.028 508.819 230.173C513.288 216.318 513.176 201.392 508.502 187.605ZM458.518 230.08L370.112 294.699C366.481 297.348 363.779 301.076 362.393 305.351C361.006 309.627 361.005 314.231 362.39 318.507L395.99 422.4C397.69 427.67 397.675 433.342 395.948 438.603C394.221 443.864 390.87 448.441 386.377 451.677C381.885 454.914 376.481 456.642 370.945 456.614C365.408 456.585 360.022 454.802 355.563 451.52L268.63 387.52C264.968 384.831 260.543 383.38 256 383.38C251.457 383.38 247.032 384.831 243.371 387.52L156.438 451.52C151.981 454.846 146.58 456.667 141.019 456.717C135.458 456.767 130.026 455.046 125.509 451.801C120.993 448.556 117.627 443.957 115.9 438.671C114.173 433.384 114.174 427.686 115.904 422.4L149.611 318.507C150.996 314.231 150.995 309.627 149.608 305.351C148.221 301.076 145.519 297.348 141.888 294.699L53.4829 230.08C49.0307 226.82 45.7225 222.237 44.031 216.985C42.3394 211.732 42.3509 206.08 44.0639 200.834C45.7769 195.589 49.1037 191.019 53.5691 187.777C58.0345 184.536 63.4102 182.788 68.9282 182.784H177.728C182.245 182.784 186.645 181.35 190.295 178.69C193.944 176.029 196.655 172.279 198.038 167.979L231.104 64.9175C232.802 59.6436 236.128 55.0442 240.606 51.7815C245.084 48.5187 250.481 46.7608 256.022 46.7608C261.562 46.7608 266.959 48.5187 271.437 51.7815C275.915 55.0442 279.242 59.6436 280.939 64.9175L314.006 167.979C315.388 172.279 318.099 176.029 321.749 178.69C325.398 181.35 329.798 182.784 334.315 182.784H443.115C448.633 182.788 454.009 184.536 458.474 187.777C462.939 191.019 466.266 195.589 467.979 200.834C469.692 206.08 469.704 211.732 468.012 216.985C466.321 222.237 463.012 226.82 458.56 230.08H458.518Z" fill="#262626"/>
</g>
<defs>
<clipPath id="clip0_3515_1533">
<rect width="512" height="512" fill="white"/>
</clipPath>
</defs>
</svg>
