<svg width="512" height="512" viewBox="0 0 512 512" fill="none" xmlns="http://www.w3.org/2000/svg">
<path d="M405.333 42.6665H106.667C47.8507 42.6665 0 90.5172 0 149.333V362.666C0 421.482 47.8507 469.333 106.667 469.333H405.333C464.149 469.333 512 421.482 512 362.666V149.333C512 90.5172 464.149 42.6665 405.333 42.6665ZM42.6667 213.333H128V298.666H42.6667V213.333ZM170.667 213.333H469.333V298.666H170.667V213.333ZM469.333 149.333V170.666H170.667V85.3332H405.333C440.619 85.3332 469.333 114.048 469.333 149.333ZM106.667 85.3332H128V170.666H42.6667V149.333C42.6667 114.048 71.3813 85.3332 106.667 85.3332ZM42.6667 362.666V341.333H128V426.666H106.667C71.3813 426.666 42.6667 397.952 42.6667 362.666ZM405.333 426.666H170.667V341.333H469.333V362.666C469.333 397.952 440.619 426.666 405.333 426.666Z" fill="#262626"/>
</svg>
