<svg width="512" height="512" viewBox="0 0 512 512" fill="none" xmlns="http://www.w3.org/2000/svg">
<g clip-path="url(#clip0_3515_1545)">
<path d="M192 512H21.3333C15.6754 512 10.2492 509.753 6.24839 505.752C2.24761 501.751 0 496.325 0 490.667C0 485.009 2.24761 479.583 6.24839 475.582C10.2492 471.581 15.6754 469.333 21.3333 469.333H192C197.658 469.333 203.084 471.581 207.085 475.582C211.086 479.583 213.333 485.009 213.333 490.667C213.333 496.325 211.086 501.751 207.085 505.752C203.084 509.753 197.658 512 192 512Z" fill="#262626"/>
<path d="M149.333 426.667H21.3333C15.6754 426.667 10.2492 424.419 6.24839 420.418C2.24761 416.418 0 410.991 0 405.333C0 399.675 2.24761 394.249 6.24839 390.248C10.2492 386.248 15.6754 384 21.3333 384H149.333C154.991 384 160.417 386.248 164.418 390.248C168.419 394.249 170.667 399.675 170.667 405.333C170.667 410.991 168.419 416.418 164.418 420.418C160.417 424.419 154.991 426.667 149.333 426.667Z" fill="#262626"/>
<path d="M106.667 341.333H21.3333C15.6754 341.333 10.2492 339.086 6.24839 335.085C2.24761 331.084 0 325.658 0 320C0 314.342 2.24761 308.916 6.24839 304.915C10.2492 300.914 15.6754 298.667 21.3333 298.667H106.667C112.325 298.667 117.751 300.914 121.752 304.915C125.752 308.916 128 314.342 128 320C128 325.658 125.752 331.084 121.752 335.085C117.751 339.086 112.325 341.333 106.667 341.333Z" fill="#262626"/>
<path d="M277.334 511.04C271.676 511.292 266.149 509.286 261.971 505.463C257.792 501.64 255.303 496.314 255.051 490.656C254.799 484.998 256.805 479.472 260.628 475.293C264.451 471.114 269.777 468.625 275.435 468.373C315.807 464.679 354.291 449.558 386.38 424.78C418.468 400.003 442.832 366.595 456.617 328.47C470.403 290.344 473.04 249.08 464.219 209.511C455.398 169.941 435.485 133.704 406.811 105.043C378.138 76.383 341.891 56.4863 302.317 47.6836C262.744 38.8809 221.481 41.5367 183.362 55.34C145.243 69.1432 111.846 93.5223 87.0835 125.622C62.3207 157.721 47.2171 196.213 43.5416 236.587C43.0324 242.222 40.3054 247.424 35.9606 251.049C31.6157 254.674 26.0089 256.424 20.3736 255.915C14.7383 255.405 9.53607 252.678 5.91136 248.334C2.28666 243.989 0.536399 238.382 1.04561 232.747C6.99524 167.111 38.0292 106.298 87.6873 62.9667C137.345 19.6359 201.802 -2.87435 267.639 0.121863C333.476 3.11808 395.621 31.3899 441.138 79.0521C486.655 126.714 512.037 190.095 512 256C512.327 319.965 488.564 381.709 445.438 428.95C402.312 476.191 342.983 505.467 279.254 510.955C278.614 511.019 277.952 511.04 277.334 511.04Z" fill="#262626"/>
<path d="M256 128C250.342 128 244.916 130.248 240.915 134.248C236.915 138.249 234.667 143.675 234.667 149.333V256C234.668 261.657 236.917 267.083 240.918 271.083L304.918 335.083C308.941 338.969 314.33 341.119 319.924 341.07C325.517 341.022 330.868 338.778 334.823 334.823C338.778 330.867 341.022 325.517 341.071 319.923C341.119 314.33 338.969 308.941 335.083 304.917L277.334 247.168V149.333C277.334 143.675 275.086 138.249 271.085 134.248C267.084 130.248 261.658 128 256 128Z" fill="#262626"/>
</g>
<defs>
<clipPath id="clip0_3515_1545">
<rect width="512" height="512" fill="white"/>
</clipPath>
</defs>
</svg>
