<svg width="512" height="512" viewBox="0 0 512 512" fill="none" xmlns="http://www.w3.org/2000/svg">
<g clip-path="url(#clip0_3726_228)">
<path d="M252.416 512C246.085 512.003 239.895 510.128 234.63 506.612C229.365 503.096 225.261 498.097 222.838 492.248C220.415 486.399 219.781 479.962 221.017 473.753C222.253 467.544 225.303 461.841 229.781 457.365L393.451 293.717C398.405 288.765 402.334 282.885 405.015 276.413C407.697 269.941 409.077 263.005 409.077 256C409.077 248.995 407.697 242.059 405.015 235.587C402.334 229.115 398.405 223.235 393.451 218.283L229.781 54.6347C226.809 51.6622 224.451 48.1335 222.842 44.2498C221.234 40.3661 220.406 36.2036 220.406 32C220.406 23.5104 223.778 15.3684 229.781 9.36533C235.784 3.36225 243.926 -0.0102539 252.416 -0.0102539C256.62 -0.0102539 260.782 0.817716 264.666 2.42638C268.549 4.03505 272.078 6.39291 275.051 9.36533L438.699 173.035C460.702 195.039 473.063 224.882 473.063 256C473.063 287.118 460.702 316.961 438.699 338.965L275.051 502.635C272.078 505.606 268.549 507.962 264.665 509.569C260.781 511.176 256.619 512.002 252.416 512Z" fill="white"/>
<path d="M48.7891 512C42.4598 511.999 36.273 510.12 31.0113 506.603C25.7495 503.085 21.6491 498.086 19.2285 492.238C16.8079 486.39 16.176 479.955 17.4126 473.748C18.6492 467.541 21.6988 461.839 26.1757 457.365L219.989 263.552C220.982 262.561 221.771 261.384 222.308 260.088C222.846 258.792 223.123 257.403 223.123 256C223.123 254.597 222.846 253.208 222.308 251.912C221.771 250.616 220.982 249.439 219.989 248.448L26.1757 54.6347C20.1727 48.6344 16.799 40.4952 16.797 32.0075C16.795 23.5199 20.1648 15.3791 26.1651 9.376C32.1653 3.37291 40.3046 -0.000714786 48.7922 -0.00271517C57.2799 -0.00471556 65.4207 3.36507 71.4238 9.36533L265.258 203.2C279.22 217.221 287.058 236.202 287.058 255.989C287.058 275.776 279.22 294.757 265.258 308.779L71.4238 502.635C68.4508 505.606 64.9217 507.962 61.038 509.569C57.1543 511.176 52.9921 512.002 48.7891 512Z" fill="white"/>
</g>
<defs>
<clipPath id="clip0_3726_228">
<rect width="512" height="512" fill="white"/>
</clipPath>
</defs>
</svg>
